<svg height="597pt" viewBox="-98 -18 597 597.33331" width="597pt" xmlns="http://www.w3.org/2000/svg"><path d="m124.832031 200c38.664063 0 70-31.335938 70-70s-31.335937-70-70-70c-38.660156 0-70 31.335938-70 70 .046875 38.640625 31.359375 69.957031 70 70zm40-80h20v20h-20zm-40 20c-14.59375.03125-27.078125-10.472656-29.554687-24.859375-2.46875-14.382813 5.792968-28.453125 19.554687-33.300781v-11.839844h20v11.839844c11.945313 4.222656 19.949219 15.496094 20 28.160156h-20c0-5.523438-4.476562-10-10-10-5.519531 0-10 4.476562-10 10s4.480469 10 10 10c14.597657-.03125 27.082031 10.472656 29.558594 24.859375 2.46875 14.382813-5.792969 28.453125-19.558594 33.300781v11.839844h-20v-11.839844c-11.941406-4.222656-19.945312-15.496094-20-28.160156h20c0 5.523438 4.480469 10 10 10 5.523438 0 10-4.476562 10-10s-4.476562-10-10-10zm-60-20h20v20h-20zm0 0"/><path d="m4.832031 560h380c5.523438 0 10-4.476562 10-10v-450h-70c-16.566406 0-30-13.433594-30-30v-70h-280c-11.042969 0-20 8.953125-20 20v530c0 5.523438 4.480469 10 10 10zm330-120h-290v-20h290zm0-80h-290v-20h290zm0-80h-290v-20h290zm-100-140h100v20h-100zm0 40h100v20h-100zm-110-140c49.707031 0 90 40.292969 90 90s-40.292969 90-90 90-90-40.292969-90-90c.054688-49.683594 40.320313-89.945312 90-90zm0 0"/><path d="m380.691406 80-65.859375-65.859375v55.859375c0 5.523438 4.480469 10 10 10zm0 0"/></svg>